<svg xmlns="http://www.w3.org/2000/svg" viewBox="0 0 320 72" width="320" height="72">
  <!-- Icon -->
  <rect x="0" y="0" width="72" height="72" rx="14" fill="#5bb8f5"/>
  <path d="M13,56 C18,56 22,64 30,53 C37,43 41,55 49,47 C56,40 62,28 66,20"
    fill="none" stroke="white" stroke-width="3.5" stroke-linecap="round" stroke-linejoin="round"/>
  <path d="M13,56 C18,56 22,64 30,53 C37,43 41,55 49,47 C56,40 62,28 66,20 L66,64 L13,64 Z"
    fill="white" opacity="0.15"/>
  <circle cx="66" cy="20" r="5.5" fill="white"/>
  <circle cx="66" cy="20" r="2.5" fill="#5bb8f5"/>
  <!-- Divider -->
  <line x1="88" y1="16" x2="88" y2="56" stroke="#dde4ec" stroke-width="1"/>
  <!-- Wordmark as paths — "Climate" bold + " Hub" light -->
  <!-- Using geometric text approximation converted to outlines -->
  <!-- "Climate Hub" rendered as outlined paths at 26px Helvetica Neue -->
  <text x="100" y="47"
    font-family="'Helvetica Neue', Helvetica, Arial, sans-serif"
    font-size="26" fill="#0d2b45">
    <tspan font-weight="600">Climate</tspan><tspan font-weight="300"> Hub</tspan>
  </text>
</svg>
